<mxfile host="app.diagrams.net" modified="2024-07-15T07:54:45.938Z" agent="Mozilla/5.0 (Windows NT 10.0; Win64; x64) AppleWebKit/537.36 (KHTML, like Gecko) Chrome/126.0.0.0 Safari/537.36" etag="9BRyB-Dh3NW3zAHCVoyk" version="24.6.5" type="github">
  <diagram name="Page-1" id="ZksQWHa3JZTsv9jvDyTR">
    <mxGraphModel dx="880" dy="460" grid="1" gridSize="10" guides="1" tooltips="1" connect="1" arrows="1" fold="1" page="1" pageScale="1" pageWidth="850" pageHeight="1100" math="0" shadow="0">
      <root>
        <mxCell id="0" />
        <mxCell id="1" parent="0" />
        <mxCell id="bOrli_OIQPA8ux9gMtFo-1" value="" style="ellipse;whiteSpace=wrap;html=1;" vertex="1" parent="1">
          <mxGeometry x="305" y="40" width="120" height="80" as="geometry" />
        </mxCell>
        <mxCell id="bOrli_OIQPA8ux9gMtFo-2" value="" style="endArrow=classic;html=1;rounded=0;exitX=0.5;exitY=1;exitDx=0;exitDy=0;" edge="1" parent="1">
          <mxGeometry width="50" height="50" relative="1" as="geometry">
            <mxPoint x="362" y="120" as="sourcePoint" />
            <mxPoint x="362" y="160" as="targetPoint" />
          </mxGeometry>
        </mxCell>
        <mxCell id="bOrli_OIQPA8ux9gMtFo-3" value="" style="rhombus;whiteSpace=wrap;html=1;" vertex="1" parent="1">
          <mxGeometry x="323" y="159" width="80" height="80" as="geometry" />
        </mxCell>
        <mxCell id="bOrli_OIQPA8ux9gMtFo-4" value="" style="endArrow=classic;html=1;rounded=0;" edge="1" parent="1">
          <mxGeometry width="50" height="50" relative="1" as="geometry">
            <mxPoint x="600" y="200" as="sourcePoint" />
            <mxPoint x="599.5" y="239" as="targetPoint" />
          </mxGeometry>
        </mxCell>
        <mxCell id="bOrli_OIQPA8ux9gMtFo-5" value="" style="endArrow=classic;html=1;rounded=0;" edge="1" parent="1">
          <mxGeometry width="50" height="50" relative="1" as="geometry">
            <mxPoint x="140.5" y="199" as="sourcePoint" />
            <mxPoint x="140.5" y="239" as="targetPoint" />
          </mxGeometry>
        </mxCell>
        <mxCell id="bOrli_OIQPA8ux9gMtFo-6" value="" style="rhombus;whiteSpace=wrap;html=1;" vertex="1" parent="1">
          <mxGeometry x="560" y="239" width="80" height="80" as="geometry" />
        </mxCell>
        <mxCell id="bOrli_OIQPA8ux9gMtFo-7" value="" style="rounded=0;whiteSpace=wrap;html=1;" vertex="1" parent="1">
          <mxGeometry x="80" y="239" width="120" height="60" as="geometry" />
        </mxCell>
        <mxCell id="bOrli_OIQPA8ux9gMtFo-8" value="" style="endArrow=none;html=1;rounded=0;exitX=1;exitY=0.5;exitDx=0;exitDy=0;" edge="1" parent="1" source="bOrli_OIQPA8ux9gMtFo-3">
          <mxGeometry width="50" height="50" relative="1" as="geometry">
            <mxPoint x="410" y="200" as="sourcePoint" />
            <mxPoint x="600" y="200" as="targetPoint" />
          </mxGeometry>
        </mxCell>
        <mxCell id="bOrli_OIQPA8ux9gMtFo-9" value="" style="endArrow=none;html=1;rounded=0;exitX=1;exitY=0.5;exitDx=0;exitDy=0;" edge="1" parent="1">
          <mxGeometry width="50" height="50" relative="1" as="geometry">
            <mxPoint x="142" y="199" as="sourcePoint" />
            <mxPoint x="322" y="200" as="targetPoint" />
          </mxGeometry>
        </mxCell>
      </root>
    </mxGraphModel>
  </diagram>
</mxfile>
